<svg width="24" height="24" viewBox="0 0 24 24" fill="none" xmlns="http://www.w3.org/2000/svg">
<g id="cart-plus">
<g id="Union">
<path d="M13.5 8.25C13.5 7.83579 13.1642 7.5 12.75 7.5C12.3358 7.5 12 7.83579 12 8.25V10.5H9.75C9.33579 10.5 9 10.8358 9 11.25C9 11.6642 9.33579 12 9.75 12H12V14.25C12 14.6642 12.3358 15 12.75 15C13.1642 15 13.5 14.6642 13.5 14.25V12H15.75C16.1642 12 16.5 11.6642 16.5 11.25C16.5 10.8358 16.1642 10.5 15.75 10.5H13.5V8.25Z" fill="#D63131"/>
<path d="M0.75 1.5C0.335786 1.5 0 1.83579 0 2.25C0 2.66421 0.335786 3 0.75 3H2.41442L3.01697 5.4102L5.26285 17.3882C5.32936 17.7429 5.63909 18 6 18H7.5C5.84315 18 4.5 19.3431 4.5 21C4.5 22.6569 5.84315 24 7.5 24C9.15685 24 10.5 22.6569 10.5 21C10.5 19.3431 9.15685 18 7.5 18H18C16.3431 18 15 19.3431 15 21C15 22.6569 16.3431 24 18 24C19.6569 24 21 22.6569 21 21C21 19.3431 19.6569 18 18 18H19.5C19.8609 18 20.1706 17.7429 20.2372 17.3882L22.4872 5.38822C22.5283 5.16892 22.4696 4.94271 22.3271 4.77102C22.1846 4.59934 21.9731 4.5 21.75 4.5H4.33558L3.72761 2.0681C3.64414 1.73422 3.34415 1.5 3 1.5H0.75ZM6.62244 16.5L4.65369 6H20.8463L18.8776 16.5H6.62244ZM9 21C9 21.8284 8.32843 22.5 7.5 22.5C6.67157 22.5 6 21.8284 6 21C6 20.1716 6.67157 19.5 7.5 19.5C8.32843 19.5 9 20.1716 9 21ZM19.5 21C19.5 21.8284 18.8284 22.5 18 22.5C17.1716 22.5 16.5 21.8284 16.5 21C16.5 20.1716 17.1716 19.5 18 19.5C18.8284 19.5 19.5 20.1716 19.5 21Z" fill="#D63131"/>
</g>
</g>
</svg>
