<svg width="65" height="64" viewBox="0 0 65 64" fill="none" xmlns="http://www.w3.org/2000/svg">
<g id="Frame" clip-path="url(#clip0_3_71480)">
<path id="Vector" d="M32.5 64C50.1731 64 64.5 49.6731 64.5 32C64.5 14.3269 50.1731 0 32.5 0C14.8269 0 0.5 14.3269 0.5 32C0.5 49.6731 14.8269 64 32.5 64Z" fill="#EBEBEB"/>
<path id="Vector_2" d="M46.6709 52.353C57.9118 44.5273 60.6803 29.0708 52.8546 17.8299C45.0289 6.58906 29.5724 3.82053 18.3315 11.6462C7.09067 19.4719 4.32213 34.9284 12.1478 46.1693C19.9735 57.4102 35.43 60.1787 46.6709 52.353Z" fill="white"/>
<path id="Vector_3" d="M32.5 55.5C45.4787 55.5 56 44.9787 56 32C56 19.0213 45.4787 8.5 32.5 8.5C19.5213 8.5 9 19.0213 9 32C9 44.9787 19.5213 55.5 32.5 55.5Z" fill="#DADDE1"/>
<path id="Vector_4" d="M52.4002 18.6999C51.8002 20.3999 49.2002 20.8999 48.0002 19.4999C49.0002 22.5999 52.5002 24.0999 54.2002 26.8999C55.0002 28.0999 55.1002 30.1999 53.7002 30.6999C53.1002 30.8999 52.5002 30.7999 52.0002 30.9999C51.0002 31.3999 50.9002 32.7999 51.3002 33.6999C51.7002 34.5999 52.6002 35.2999 53.3002 36.0999C54.9002 37.8999 55.8002 40.3999 55.7002 42.7999C54.2002 41.8999 52.9002 40.5999 51.9002 39.1999C51.4002 41.2999 51.4002 43.3999 51.8002 45.4999C51.9002 46.0999 52.1002 46.6999 51.9002 47.1999C51.5002 48.3999 49.9002 48.5999 48.6002 48.4999C47.3002 48.3999 45.8002 48.2999 45.1002 49.3999C44.3002 50.5999 45.3002 52.3999 44.7002 53.6999C44.1002 54.8999 42.5002 55.1999 41.3002 54.6999C40.1002 54.1999 39.3002 53.0999 38.5002 52.0999C37.3002 53.1999 36.0002 54.1999 34.8002 55.2999C34.6002 55.4999 34.4002 55.6999 34.1002 55.6999C33.8002 55.6999 33.5002 55.4999 33.3002 55.2999C31.6002 53.8999 29.8002 52.3999 29.4002 50.1999C28.4002 51.2999 27.3002 52.3999 26.3002 53.4999C24.6002 52.2999 23.4002 50.5999 22.8002 48.6999C21.7002 48.5999 20.9002 49.6999 19.9002 50.0999C17.9002 50.9999 15.8002 49.1999 14.4002 47.4999C15.2002 46.4999 16.0002 45.4999 16.9002 44.4999C15.9002 42.9999 13.5002 43.1999 12.2002 41.9999C11.0002 40.9999 10.8002 39.1999 10.8002 37.5999C12.9002 36.2999 15.5002 35.7999 17.9002 36.1999C15.0002 34.3999 12.3002 32.4999 9.60022 30.3999C10.5002 30.4999 11.5002 30.4999 12.4002 30.5999C12.8002 28.7999 12.4002 26.8999 11.5002 25.3999C11.1002 24.7999 10.6002 24.1999 10.4002 23.5999C10.2002 22.8999 10.3002 22.0999 10.9002 21.6999C11.4002 21.3999 12.0002 21.4999 12.5002 21.5999C14.5002 21.9999 16.6002 22.2999 18.6002 22.6999C17.9002 20.4999 17.5002 18.0999 17.5002 15.7999C17.5002 14.3999 17.6002 12.8999 18.4002 11.6999C19.2002 10.4999 20.8002 9.79994 22.1002 10.4999C24.2002 11.5999 23.3002 14.9999 24.7002 16.9999C26.1002 12.9999 28.8002 9.39994 32.3002 6.99994C32.6002 6.79994 33.0002 6.59994 33.4002 6.69994C33.7002 6.79994 33.9002 7.19994 34.0002 7.49994C34.6002 9.19994 34.8002 10.9999 34.6002 12.7999C34.6002 13.0999 34.5002 13.3999 34.6002 13.6999C35.0002 14.4999 36.2002 14.0999 36.8002 13.4999C38.6002 11.7999 40.4002 8.59994 43.2002 8.59994C41.8002 11.5999 40.5002 11.9999 44.0002 13.8999C46.6002 15.3999 49.6002 16.8999 52.4002 18.6999Z" fill="#80C350"/>
<path id="Vector_5" d="M6.80022 43.5C3.70022 40.4 3.70022 35.5 6.80022 32.5C9.90022 29.4 14.8002 29.4 17.8002 32.5C20.9002 35.6 20.9002 40.5 17.8002 43.5C14.8002 46.5 9.90022 46.5 6.80022 43.5Z" fill="white"/>
<path id="Vector_6" d="M12.4004 38.9L10.9004 44.3C10.9004 44.5 11.0004 44.7 11.2004 44.7C13.2004 45 15.3004 44.5 16.9004 43.2C17.0004 43.1 17.1004 42.9 16.9004 42.7L12.9004 38.7C12.7004 38.6 12.4004 38.7 12.4004 38.9ZM18.7004 36C18.9004 36 19.0004 35.8 18.9004 35.6C18.6004 34.7 18.0004 33.8 17.3004 33C16.6004 32.3 15.7004 31.7 14.7004 31.4C14.5004 31.3 14.3004 31.4 14.3004 31.6L12.9004 37C12.8004 37.2 13.1004 37.5 13.3004 37.4L18.7004 36ZM6.0004 39.9C5.8004 39.9 5.7004 40.1 5.8004 40.3C6.1004 41.2 6.7004 42.1 7.4004 42.9C8.1004 43.6 9.0004 44.2 10.0004 44.5C10.2004 44.6 10.4004 44.5 10.4004 44.3L11.9004 38.9C12.0004 38.7 11.7004 38.4 11.5004 38.5L6.0004 39.9ZM13.2004 38.5L17.2004 42.5C17.3004 42.6 17.6004 42.6 17.7004 42.5C19.1004 40.9 19.6004 38.8 19.2004 36.8C19.2004 36.6 19.0004 36.5 18.8004 36.5L13.4004 38C13.1004 38 13.1004 38.3 13.2004 38.5ZM11.5004 37.4L7.5004 33.4C7.4004 33.3 7.1004 33.3 7.0004 33.4C5.6004 35 5.1004 37.1 5.5004 39.1C5.5004 39.3 5.7004 39.4 5.9004 39.4L11.3004 37.9C11.6004 37.9 11.7004 37.6 11.5004 37.4ZM12.4004 36.9L13.9004 31.5C13.9004 31.3 13.8004 31.1 13.6004 31.1C11.6004 30.8 9.5004 31.3 7.9004 32.6C7.8004 32.7 7.7004 32.9 7.9004 33.1L11.9004 37.1C12.0004 37.2 12.3004 37.2 12.4004 36.9Z" fill="#F5E346"/>
<path id="Vector_7" d="M32.1002 57.3C29.0002 60.4 24.0002 60.5 20.9002 57.5C17.9002 54.5 18.0002 49.5 21.1002 46.3C24.2002 43.2 29.2002 43.1 32.3002 46.1C35.4002 49.2 35.3002 54.2 32.1002 57.3Z" fill="#E14A4A"/>
<path id="Vector_8" d="M27.4 52.7L30.3 52.9L27.7 51.5999L29.4 49.2L27 50.7999L25.7 48.2L25.9 51.0999L23 50.7999L25.6 52.0999L23.9 54.5L26.3 52.9L27.6 55.5L27.4 52.7Z" fill="#7DBC4F"/>
<path id="Vector_9" d="M27.3002 51.9001C27.3002 52.3001 27.0002 52.5 26.7002 52.5C26.4002 52.5 26.1002 52.2001 26.1002 51.9001C26.1002 51.6001 26.4002 51.3 26.7002 51.3C27.0002 51.3 27.3002 51.5001 27.3002 51.9001Z" fill="#6CA341"/>
<g id="Group">
<path id="Vector_10" d="M50.4 14.0001C42.5 6.1001 29.2 6.5001 20.8 14.9001C15.8 19.9001 13.6 26.5001 14.3 32.8001C19.4 28.7001 26.7 28.8001 31.1 33.2001C35.6 37.7001 35.6 44.9001 31.5 50.0001C37.7 50.7001 44.4 48.5001 49.4 43.5001C57.9 35.1001 58.3 21.9001 50.4 14.0001Z" fill="#F3BF8D"/>
<path id="Vector_11" d="M30.9007 50.3L31.3007 49.8C35.4007 44.8 35.2007 37.7 30.9007 33.5C26.6007 29.2 19.6007 29 14.5007 33.1L14.0007 33.5L13.9007 32.8C13.2007 26.2 15.6007 19.5 20.5007 14.6C29.1007 6.00004 42.6007 5.60004 50.6007 13.7C58.6007 21.7 58.2007 35.2 49.7007 43.8C44.8007 48.7 38.2007 51.1 31.5007 50.4L30.9007 50.3ZM31.4007 33C35.8007 37.4 36.1007 44.5 32.3007 49.8C38.5007 50.3 44.6007 47.9 49.2007 43.4C57.5007 35.1 57.9007 22.1 50.1007 14.3C42.3007 6.50004 29.3007 7.00004 21.0007 15.2C16.4007 19.8 14.1007 25.9 14.6007 32.1C19.9007 28.2 27.0007 28.6 31.4007 33Z" fill="#9DA6B1"/>
<path id="Vector_12" d="M47.6007 18.1001L45.8007 19.9001C49.9007 24.4001 51.1007 30.1001 48.3007 32.8001C48.2007 32.9001 48.0007 33.1001 47.9007 33.2001C50.2007 30.3001 48.9007 25.0001 45.0007 20.7001L41.6007 24.0001C46.3007 29.2001 47.3007 36.1001 43.6007 39.8001C43.4007 40.0001 43.2007 40.1001 43.0007 40.3001C46.0007 36.5001 45.0007 30.0001 40.5007 25.1001L37.8007 27.8001C42.4007 33.0001 42.6007 40.7001 38.1007 45.3001C37.9007 45.5001 37.6007 45.7001 37.4007 45.9001C41.3007 41.3001 40.9007 34.1001 36.5007 29.1001L34.5007 31.1001C33.6007 32.0001 33.4007 33.5001 34.0007 34.6001C36.6007 38.8001 36.6007 44.2001 34.1007 48.7001C39.3007 48.6001 44.4007 46.4001 48.3007 42.5001C55.0007 35.8001 56.3007 25.9001 52.0007 18.6001C51.2007 17.0001 48.9007 16.7001 47.6007 18.1001ZM18.5007 26.9001C18.7007 26.7001 18.9007 26.4001 19.1007 26.2001C23.7007 21.6001 31.3007 21.8001 36.6007 26.5001L39.3007 23.8001C34.4007 19.3001 27.9007 18.2001 24.1007 21.3001C24.3007 21.1001 24.4007 20.9001 24.6007 20.7001C28.2007 17.1001 35.2007 18.0001 40.4007 22.7001L43.8007 19.3001C39.5007 15.4001 34.2007 14.2001 31.3007 16.4001C31.4007 16.3001 31.5007 16.1001 31.7007 16.0001C34.4007 13.3001 40.1007 14.4001 44.6007 18.5001L46.4007 16.7001C47.7007 15.4001 47.5007 13.1001 45.9007 12.2001C38.4007 8.00011 28.5007 9.30011 21.8007 16.0001C17.9007 19.9001 15.7007 25.0001 15.6007 30.2001C20.1007 27.7001 25.5007 27.8001 29.7007 30.3001C30.8007 31.0001 32.3007 30.8001 33.2007 29.8001L35.2007 27.8001C30.3007 23.4001 23.1007 23.0001 18.5007 26.9001Z" fill="#F47C38"/>
</g>
</g>
<defs>
<clipPath id="clip0_3_71480">
<rect width="64" height="64" fill="white" transform="translate(0.5)"/>
</clipPath>
</defs>
</svg>
