<svg width="64" height="65" viewBox="0 0 64 65" fill="none" xmlns="http://www.w3.org/2000/svg">
<g id="Frame">
<path id="Vector" d="M32 63.22C48.9662 63.22 62.72 49.4662 62.72 32.5C62.72 15.5338 48.9662 1.78003 32 1.78003C15.0338 1.78003 1.28003 15.5338 1.28003 32.5C1.28003 49.4662 15.0338 63.22 32 63.22Z" fill="#B46F45"/>
<path id="Vector_2" d="M32.0002 58.484C46.3508 58.484 57.9842 46.8506 57.9842 32.5C57.9842 18.1494 46.3508 6.51599 32.0002 6.51599C17.6497 6.51599 6.01624 18.1494 6.01624 32.5C6.01624 46.8506 17.6497 58.484 32.0002 58.484Z" fill="#F9BA5D"/>
<path id="Vector_3" opacity="0.3" d="M32 4.34003C47.488 4.34003 60.16 17.012 60.16 32.5C60.16 47.988 47.488 60.66 32 60.66C16.512 60.66 3.84003 47.988 3.84003 32.5C3.84003 17.012 16.512 4.34003 32 4.34003ZM32 1.78003C14.976 1.78003 1.28003 15.476 1.28003 32.5C1.28003 49.524 14.976 63.22 32 63.22C49.024 63.22 62.72 49.524 62.72 32.5C62.72 15.476 49.024 1.78003 32 1.78003Z" fill="white"/>
<path id="Vector_4" d="M27.5198 15.988C29.3118 13.94 32.2558 13.044 34.9438 13.556C35.8398 13.812 36.8638 14.196 37.2478 15.092C37.5038 15.476 37.5038 15.988 37.6318 16.372C37.7598 16.756 38.0158 17.268 38.5278 17.396C39.1678 17.524 39.8078 16.884 39.8078 16.244C39.9358 15.604 39.5518 14.964 39.1678 14.452C37.6318 12.404 34.9438 11.38 32.5118 11.508C29.9518 11.764 27.6478 13.172 26.1118 15.22C24.5758 17.268 23.9358 19.956 24.1918 22.388C24.1918 22.9 24.3198 23.412 24.7038 23.796C25.4718 24.436 25.9838 23.668 25.8558 23.028C25.7278 22.132 25.5998 21.364 25.5998 20.468C25.7278 18.932 26.3678 17.268 27.5198 15.988Z" fill="#FAD666"/>
<path id="Vector_5" opacity="0.2" d="M25.2161 23.6679C25.2161 23.6679 25.0881 23.6679 25.0881 23.5399C24.8321 23.2839 24.8321 22.8999 24.7041 22.5159C24.5761 20.0839 25.2161 17.5239 26.6241 15.6039C28.0321 13.5559 30.3361 12.2759 32.6401 12.1479H33.1521C35.3281 12.1479 37.5041 13.1719 38.7841 14.8359C39.1681 15.3479 39.4241 15.8599 39.2961 16.2439C39.2961 16.4999 39.0401 16.8839 38.7841 16.8839C38.5281 16.8839 38.2721 16.4999 38.1441 16.2439C38.1441 16.1159 38.0161 15.9879 38.0161 15.7319C37.8881 15.4759 37.8881 15.0919 37.7601 14.8359C37.2481 13.6839 35.9681 13.2999 35.0721 13.0439C34.5601 12.9159 33.9201 12.9159 33.4081 12.9159C31.1041 12.9159 28.6721 13.9399 27.2641 15.6039C26.1121 17.0119 25.3441 18.6759 25.2161 20.5959C25.2161 21.3639 25.2161 22.0039 25.3441 22.5159C25.3441 22.7719 25.4721 22.8999 25.4721 23.1559C25.3441 23.4119 25.3441 23.5399 25.2161 23.6679Z" fill="white"/>
<path id="Vector_6" d="M29.0562 22.132C29.1842 20.98 29.4402 19.7 30.2082 18.676C30.7202 17.908 31.6162 17.14 32.6402 17.14C33.2802 17.14 34.0482 17.524 34.6882 17.78C36.6082 18.548 38.6562 19.06 40.7042 18.548C42.1122 18.164 43.7762 17.268 44.2882 15.86C44.4162 15.604 44.1602 15.348 43.9042 15.22C43.6482 15.092 43.3922 15.092 43.0082 15.22C41.0882 15.604 39.8082 17.14 37.7602 16.884C36.3522 16.628 35.3282 15.732 33.9202 15.476C32.3842 15.22 30.7202 15.988 29.5682 17.268C28.4162 18.548 27.9042 19.956 27.3922 21.492C27.1362 22.26 26.8802 23.028 27.0082 23.796C27.0082 24.436 28.0322 26.228 28.9282 25.844C29.5682 25.588 29.0562 22.772 29.0562 22.132Z" fill="#FAD666"/>
<path id="Vector_7" opacity="0.2" d="M28.5438 25.332C28.1598 25.332 27.3918 24.18 27.3918 23.668C27.3918 23.028 27.5198 22.26 27.7758 21.492C28.2878 20.084 28.7998 18.548 29.8238 17.396C30.7198 16.372 31.9998 15.732 33.0238 15.732H33.5358C34.1758 15.86 34.6878 16.116 35.3278 16.372C35.9678 16.628 36.7358 17.012 37.5038 17.14H38.1438C39.2958 17.14 40.1918 16.628 41.0878 16.244C41.7278 15.988 42.3678 15.604 43.0078 15.476H43.5198C43.1358 16.628 41.5998 17.524 40.3198 17.908C39.8078 18.036 39.2958 18.164 38.6558 18.164C37.3758 18.164 36.0958 17.908 34.6878 17.268H34.5598C33.9198 17.012 33.2798 16.756 32.6398 16.756C31.6158 16.756 30.4638 17.396 29.8238 18.548C29.1838 19.572 28.7998 20.724 28.6718 22.26V23.284C28.6718 23.668 28.7998 25.076 28.5438 25.332Z" fill="white"/>
<path id="Vector_8" d="M19.9679 16.5C20.0959 15.348 20.3519 14.068 21.1199 13.044C21.6319 12.276 22.5279 11.508 23.5519 11.508C24.1919 11.508 24.9599 11.892 25.5999 12.148C27.5199 12.916 29.5679 13.428 31.6159 12.916C33.0239 12.532 34.6879 11.636 35.1999 10.228C35.3279 9.97196 35.0719 9.71596 34.8159 9.58796C34.5599 9.45996 34.1759 9.45996 33.9199 9.45996C31.9999 9.84396 30.7199 11.38 28.6719 11.124C27.2639 10.868 26.2399 9.97196 24.8319 9.71596C23.1679 9.45996 21.5039 10.228 20.4799 11.508C19.4559 12.66 18.8159 14.196 18.3039 15.732C18.0479 16.5 17.7919 17.268 17.9199 18.036C17.9199 18.676 18.9439 20.468 19.8399 20.084C20.4799 19.828 19.9679 17.14 19.9679 16.5Z" fill="#FAD666"/>
<path id="Vector_9" opacity="0.2" d="M19.4561 19.7C19.0721 19.7 18.3041 18.548 18.3041 18.036C18.3041 17.396 18.4321 16.628 18.6881 15.86C19.2001 14.452 19.7121 12.916 20.7361 11.764C21.7601 10.74 22.9121 10.228 24.0641 10.228H24.5761C25.2161 10.356 25.7281 10.612 26.3681 10.868C27.0081 11.124 27.7761 11.508 28.5441 11.636H29.1841C30.3361 11.636 31.2321 11.124 32.1281 10.74C32.7681 10.484 33.4081 10.1 34.0481 9.97205H34.5601C34.1761 11.124 32.6401 12.02 31.3601 12.404C30.8481 12.532 30.3361 12.66 29.6961 12.66C28.4161 12.66 27.1361 12.404 25.7281 11.764L25.4721 11.636C24.8321 11.38 24.1921 11.124 23.5521 11.124C22.5281 11.124 21.3761 11.764 20.7361 12.916C20.0961 13.94 19.7121 15.092 19.5841 16.628V17.652C19.5841 18.036 19.7121 19.444 19.4561 19.7Z" fill="white"/>
<path id="Vector_10" d="M37.7603 17.78C39.5523 15.732 42.4963 14.836 45.1843 15.348C46.0803 15.604 47.1043 15.988 47.4883 16.884C47.7443 17.268 47.7443 17.78 47.8723 18.164C48.0003 18.548 48.2563 19.06 48.7683 19.188C49.4083 19.316 50.0483 18.676 50.0483 18.036C50.1763 17.396 49.7923 16.756 49.4083 16.244C47.8723 14.196 45.1843 13.172 42.7523 13.3C40.1923 13.556 37.8883 14.964 36.3523 17.012C34.8163 19.06 34.1763 21.748 34.4323 24.18C34.4323 24.692 34.5603 25.204 34.9443 25.588C35.7123 26.228 36.2243 25.46 36.0963 24.82C35.9683 23.924 35.8403 23.156 35.8403 22.26C35.9683 20.724 36.6083 19.06 37.7603 17.78Z" fill="#FAD666"/>
<path id="Vector_11" opacity="0.2" d="M34.9439 24.308C34.8159 21.876 35.4559 19.316 36.8639 17.396C40.1919 12.916 46.3359 12.916 49.1519 16.628C50.4319 18.292 49.0239 19.7 48.3839 17.524C47.3599 13.556 40.7039 13.812 37.5039 17.396C36.3519 18.804 35.5839 20.468 35.4559 22.388C35.4559 23.156 35.4559 23.796 35.5839 24.308C35.8399 26.1 35.0719 25.588 34.9439 24.308Z" fill="white"/>
<path id="Vector_12" d="M44.2879 37.8759C45.0559 38.1319 46.3359 38.0039 46.7199 39.0279C46.9759 39.9239 45.9519 41.2039 43.9039 39.9239C37.1199 35.5719 40.7039 24.3079 50.5599 24.1799C51.0719 24.1799 51.7119 24.1799 51.9679 24.5639C52.6079 25.2039 51.9679 25.8439 51.3279 25.8439C50.4319 25.8439 49.6639 25.7159 48.7679 25.8439C41.2159 26.9959 40.8319 36.5959 44.2879 37.8759Z" fill="#FAD666"/>
<path id="Vector_13" opacity="0.2" d="M51.7117 25.2041C51.7117 25.2041 51.7117 25.0761 51.5837 25.0761C51.3277 24.8201 50.9437 24.8201 50.5597 24.8201C48.1277 24.8201 45.6957 25.7161 43.9037 27.2521C41.9837 28.9161 40.9597 31.2201 40.9597 33.5241V34.0361C41.0877 36.2121 42.3677 38.3881 44.1597 39.4121C44.6717 39.7961 45.1837 39.9241 45.5677 39.7961C45.8237 39.7961 46.2077 39.4121 46.2077 39.1561C46.0797 38.9001 45.8237 38.6441 45.5677 38.6441C45.4397 38.6441 45.1837 38.5161 45.0557 38.5161C44.7997 38.5161 44.4157 38.3881 44.1597 38.2601C43.0077 37.7481 42.3677 36.5961 42.1117 35.7001C41.9837 35.1881 41.8557 34.5481 41.7277 34.0361C41.4717 31.7321 42.3677 29.3001 43.9037 27.6361C45.1837 26.3561 46.8477 25.4601 48.6397 25.2041C49.4077 25.0761 50.0477 25.2041 50.5597 25.2041H51.1997C51.4557 25.3321 51.5837 25.3321 51.7117 25.2041Z" fill="white"/>
<path id="Vector_14" d="M53.2478 31.604C52.0958 31.86 50.8158 32.244 49.9198 33.012C49.1518 33.652 48.5118 34.548 48.6398 35.572C48.6398 36.212 49.0238 36.852 49.4078 37.492C50.4318 39.284 50.9438 41.332 50.6878 43.38C50.4318 44.788 49.6638 46.58 48.2558 47.22C47.9998 47.348 47.6158 47.22 47.4878 46.964C47.3598 46.708 47.3598 46.452 47.3598 46.068C47.6158 44.148 49.0238 42.612 48.5118 40.692C48.2558 39.412 47.1038 38.26 46.8478 36.98C46.4638 35.444 47.1038 33.78 48.2558 32.5C49.4078 31.22 50.8158 30.58 52.3518 29.94C53.1198 29.684 53.8878 29.3 54.6558 29.3C55.2958 29.3 57.2158 30.068 56.8318 31.092C56.7038 31.86 54.0158 31.476 53.2478 31.604Z" fill="#FAD666"/>
<path id="Vector_15" opacity="0.2" d="M56.4482 30.836C56.4482 30.452 55.2962 29.812 54.6562 29.812C54.0162 29.812 53.2482 30.068 52.6082 30.324C51.2002 30.964 49.7922 31.604 48.7682 32.756C47.8722 33.78 47.3602 35.06 47.4882 36.084C47.4882 36.212 47.4882 36.468 47.6162 36.596C47.7442 37.108 48.1282 37.748 48.3842 38.26C48.7682 38.9 49.1522 39.54 49.2802 40.308C49.2802 40.564 49.4082 40.692 49.4082 40.948C49.5362 42.1 49.1522 43.124 48.7682 44.02C48.5122 44.66 48.2562 45.3 48.1282 45.94V46.452C49.2802 45.94 50.0482 44.404 50.1762 43.124C50.3042 42.612 50.3042 41.972 50.1762 41.46C50.0482 40.18 49.6642 38.9 48.8962 37.62L48.7682 37.364C48.5122 36.852 48.1282 36.212 48.0002 35.444C47.8722 34.42 48.5122 33.268 49.5362 32.5C50.4322 31.732 51.7122 31.22 53.1202 30.964H54.1442C54.7842 31.092 56.1922 31.092 56.4482 30.836Z" fill="white"/>
<path id="Vector_16" d="M41.6 28.788C40.448 29.044 39.168 29.428 38.272 30.196C37.504 30.836 36.864 31.732 36.992 32.756C36.992 33.396 37.376 34.036 37.76 34.676C38.784 36.468 39.296 38.516 39.04 40.564C38.784 41.972 38.016 43.764 36.608 44.404C36.352 44.532 35.968 44.404 35.84 44.148C35.712 43.892 35.712 43.636 35.712 43.252C35.968 41.332 37.376 39.796 36.864 37.876C36.608 36.596 35.456 35.444 35.2 34.164C34.816 32.628 35.456 30.964 36.608 29.684C37.76 28.532 39.168 27.764 40.704 27.124C41.472 26.868 42.24 26.484 43.008 26.484C43.648 26.484 45.568 27.252 45.184 28.276C44.928 29.044 42.24 28.66 41.6 28.788Z" fill="#FAD666"/>
<path id="Vector_17" opacity="0.2" d="M44.6723 28.02C44.6723 27.636 43.5203 26.996 42.8803 26.996C42.2403 26.996 41.4723 27.252 40.8323 27.508C39.4243 28.148 38.0163 28.788 36.9923 29.94C36.0963 30.964 35.5843 32.244 35.7123 33.268C35.7123 33.396 35.7123 33.652 35.8403 33.78C35.9683 34.292 36.3523 34.932 36.6083 35.444C36.9923 36.084 37.3763 36.724 37.5043 37.492C37.5043 37.748 37.6323 37.876 37.6323 38.132C37.7603 39.284 37.3763 40.308 36.9923 41.204C36.7363 41.844 36.4803 42.484 36.3523 43.124V43.636C37.5043 43.124 38.2723 41.588 38.4003 40.308C38.5283 39.796 38.5283 39.156 38.4003 38.644C38.2723 37.364 37.8883 36.084 37.1203 34.804V34.676C36.8643 34.164 36.4803 33.524 36.3523 32.756C36.2243 31.732 36.8643 30.58 37.8883 29.812C38.7843 29.044 40.0643 28.532 41.4723 28.276H42.4963C43.1363 28.276 44.4163 28.276 44.6723 28.02Z" fill="white"/>
<path id="Vector_18" d="M45.5683 38.9C43.6483 40.82 43.0083 43.892 43.7763 46.452C44.0323 47.348 44.5443 48.244 45.4403 48.628C45.8243 48.756 46.3363 48.756 46.8483 48.884C47.3603 49.012 47.7443 49.268 47.8723 49.652C48.1283 50.292 47.4883 50.932 46.8483 51.06C46.2083 51.188 45.5683 50.932 45.0563 50.548C42.8803 49.14 41.6003 46.708 41.6003 44.148C41.6003 41.588 42.8803 39.156 44.8003 37.492C46.7203 35.828 49.2803 34.932 51.8403 34.932C52.3523 34.932 52.9923 34.932 53.2483 35.316C53.8883 35.956 53.2483 36.596 52.6083 36.596C51.7123 36.596 50.9443 36.468 50.0483 36.596C48.3843 36.852 46.8483 37.62 45.5683 38.9Z" fill="#FAD666"/>
<path id="Vector_19" opacity="0.2" d="M52.9917 35.828C52.9917 35.828 52.9917 35.7 52.8637 35.7C52.6077 35.444 52.2237 35.444 51.8397 35.444C49.4077 35.444 46.9757 36.34 45.1837 37.876C43.2637 39.54 42.2397 41.844 42.2397 44.148V44.66C42.3677 46.836 43.6477 49.012 45.4397 50.036C45.9517 50.42 46.4637 50.548 46.8477 50.42C47.1037 50.42 47.4877 50.036 47.4877 49.78C47.3597 49.524 47.1037 49.268 46.8477 49.268C46.7197 49.268 46.4637 49.14 46.3357 49.14C46.0797 49.14 45.6957 49.012 45.4397 48.884C44.2877 48.372 43.6477 47.22 43.3917 46.324C43.2637 45.812 43.1357 45.172 43.0077 44.66C42.7517 42.356 43.6477 39.924 45.1837 38.26C46.4637 36.98 48.1277 36.084 49.9197 35.828C50.6877 35.7 51.3277 35.828 51.8397 35.828H52.4797C52.8637 36.084 52.9917 35.956 52.9917 35.828Z" fill="white"/>
<path id="Vector_20" d="M22.016 43.508C23.936 41.588 24.576 38.516 23.808 35.956C23.552 35.06 23.04 34.164 22.144 33.78C21.76 33.652 21.248 33.652 20.736 33.524C20.224 33.396 19.84 33.14 19.712 32.756C19.456 32.116 20.096 31.476 20.736 31.348C21.376 31.22 22.016 31.476 22.528 31.86C24.704 33.268 25.984 35.7 25.984 38.26C25.984 40.82 24.704 43.252 22.784 44.916C20.864 46.58 18.304 47.476 15.744 47.476C15.232 47.476 14.592 47.476 14.336 47.092C13.696 46.452 14.336 45.812 14.976 45.812C15.872 45.812 16.64 45.94 17.536 45.812C19.2 45.556 20.736 44.788 22.016 43.508Z" fill="#FAD666"/>
<path id="Vector_21" opacity="0.2" d="M14.464 46.452C14.464 46.452 14.464 46.58 14.592 46.58C14.848 46.836 15.232 46.836 15.616 46.836C18.048 46.836 20.48 45.94 22.272 44.404C24.192 42.74 25.216 40.436 25.216 38.132V37.62C25.088 35.444 23.808 33.268 22.016 32.244C21.504 31.86 20.992 31.732 20.608 31.86C20.352 31.86 19.968 32.244 19.968 32.5C20.096 32.756 20.352 33.012 20.608 33.012C20.736 33.012 20.992 33.14 21.12 33.14C21.376 33.14 21.76 33.268 22.016 33.396C23.168 33.908 23.808 35.06 24.064 35.956C24.192 36.468 24.32 37.108 24.448 37.62C24.704 39.924 23.808 42.356 22.272 44.02C20.992 45.3 19.328 46.196 17.536 46.452C16.768 46.58 16.128 46.452 15.616 46.452H14.976C14.72 46.324 14.592 46.324 14.464 46.452Z" fill="white"/>
<path id="Vector_22" d="M12.5442 37.6201C13.6962 37.3641 14.9762 36.9801 15.8722 36.2121C16.6402 35.5721 17.2802 34.6761 17.1522 33.6521C17.1522 33.0121 16.7682 32.3721 16.3842 31.7321C15.3602 29.9401 14.8482 27.8921 15.1042 25.8441C15.3602 24.4361 16.1282 22.6441 17.5362 22.0041C17.7922 21.8761 18.1762 22.0041 18.3042 22.2601C18.4322 22.5161 18.4322 22.7721 18.4322 23.1561C18.1762 25.0761 16.7682 26.6121 17.2802 28.5321C17.5362 29.8121 18.6882 30.9641 18.9442 32.2441C19.3282 33.7801 18.6882 35.4441 17.5362 36.7241C16.3842 38.0041 14.9762 38.6441 13.4402 39.2841C12.6722 39.5401 11.9042 39.9241 11.1362 39.9241C10.4962 39.9241 8.57622 39.1561 8.96022 38.1321C9.21622 37.3641 11.9042 37.7481 12.5442 37.6201Z" fill="#FAD666"/>
<path id="Vector_23" opacity="0.2" d="M9.4718 38.388C9.4718 38.772 10.6238 39.412 11.2638 39.412C11.9038 39.412 12.6718 39.156 13.3118 38.9C14.7198 38.26 16.1278 37.62 17.1518 36.468C18.0478 35.444 18.5598 34.164 18.4318 33.14C18.4318 33.012 18.4318 32.756 18.3038 32.628C18.1758 32.116 17.7918 31.476 17.5358 30.964C17.1518 30.324 16.7678 29.684 16.6398 28.916C16.6398 28.66 16.5118 28.532 16.5118 28.276C16.3838 27.124 16.7678 26.1 17.1518 25.204C17.4078 24.564 17.6638 23.924 17.7918 23.284V22.772C16.6398 23.284 15.8718 24.82 15.7438 26.1C15.6158 26.612 15.6158 27.252 15.7438 27.764C15.8718 29.044 16.2558 30.324 17.0238 31.604L17.1518 31.86C17.4078 32.372 17.7918 33.012 17.9198 33.78C18.0478 34.804 17.4078 35.956 16.3838 36.724C15.4878 37.492 14.2078 38.004 12.7998 38.26H11.7758C11.0078 38.132 9.7278 38.132 9.4718 38.388Z" fill="white"/>
<path id="Vector_24" d="M16.3843 40.3081C17.5363 40.0521 18.8163 39.6681 19.7123 38.9001C20.4803 38.2601 21.1203 37.3641 20.9923 36.3401C20.9923 35.7001 20.6083 35.0601 20.2243 34.4201C19.2003 32.6281 18.6883 30.5801 18.9443 28.5321C19.2003 27.1241 19.9683 25.3321 21.3763 24.6921C21.6323 24.5641 22.0163 24.6921 22.1443 24.9481C22.2723 25.2041 22.2723 25.4601 22.2723 25.8441C22.0163 27.7641 20.6083 29.3001 21.1203 31.2201C21.3763 32.5001 22.5283 33.6521 22.7843 34.9321C23.1683 36.4681 22.5283 38.1321 21.3763 39.4121C20.2243 40.5641 18.8163 41.3321 17.2803 41.9721C16.5123 42.2281 15.7443 42.6121 14.9763 42.6121C14.3363 42.6121 12.4163 41.8441 12.8003 40.8201C13.0563 40.1801 15.7443 40.4361 16.3843 40.3081Z" fill="#FAD666"/>
<path id="Vector_25" opacity="0.2" d="M13.3119 41.076C13.3119 41.46 14.4639 42.1 15.1039 42.1C15.7439 42.1 16.5119 41.844 17.1519 41.588C18.5599 40.948 19.9679 40.308 20.9919 39.156C21.8879 38.132 22.3999 36.852 22.2719 35.828C22.2719 35.7 22.2719 35.444 22.1439 35.316C22.0159 34.804 21.6319 34.164 21.3759 33.652C20.9919 33.012 20.6079 32.372 20.4799 31.604C20.4799 31.348 20.3519 31.22 20.3519 30.964C20.2239 29.812 20.6079 28.788 20.9919 27.892C21.2479 27.252 21.5039 26.612 21.6319 25.972V25.46C20.4799 25.972 19.7119 27.508 19.5839 28.788C19.4559 29.3 19.4559 29.94 19.5839 30.452C19.7119 31.732 20.0959 33.012 20.8639 34.292L20.9919 34.548C21.2479 35.06 21.6319 35.7 21.7599 36.468C21.8879 37.492 21.2479 38.644 20.2239 39.412C19.3279 40.18 18.0479 40.692 16.6399 40.948H15.6159C14.8479 40.948 13.4399 40.948 13.3119 41.076Z" fill="white"/>
<path id="Vector_26" d="M14.7198 30.836C16.6398 28.916 17.2798 25.844 16.5118 23.284C16.2558 22.388 15.7438 21.492 14.8478 21.108C14.4638 20.98 13.9518 20.98 13.4398 20.852C12.9278 20.724 12.5438 20.468 12.4158 20.084C12.1598 19.444 12.7998 18.804 13.4398 18.676C14.0798 18.548 14.7198 18.804 15.2318 19.188C17.4078 20.596 18.6878 23.028 18.6878 25.588C18.6878 28.148 17.4078 30.58 15.4878 32.244C13.5678 33.908 11.0078 34.804 8.44775 34.804C7.93575 34.804 7.29575 34.804 7.03975 34.42C6.39975 33.78 7.03975 33.14 7.67975 33.14C8.57575 33.14 9.34376 33.268 10.2398 33.14C12.0318 32.884 13.5678 32.116 14.7198 30.836Z" fill="#FAD666"/>
<path id="Vector_27" opacity="0.2" d="M7.29565 33.78C7.29565 33.78 7.29565 33.908 7.42365 33.908C7.67965 34.164 8.06365 34.164 8.44765 34.164C10.8797 34.164 13.3117 33.268 15.1037 31.732C17.0237 30.068 18.0477 27.764 18.0477 25.46V24.948C17.9197 22.772 16.6397 20.596 14.8477 19.572C14.3357 19.188 13.8237 19.06 13.4397 19.188C13.1837 19.188 12.7997 19.572 12.7997 19.828C12.9277 20.084 13.1837 20.34 13.4397 20.34C13.5677 20.34 13.8237 20.468 13.9517 20.468C14.2077 20.468 14.5917 20.596 14.8477 20.724C15.9997 21.236 16.6397 22.388 16.8957 23.284C17.0237 23.796 17.1517 24.436 17.2797 24.948C17.5357 27.252 16.6397 29.684 15.1037 31.348C13.8237 32.628 12.1597 33.524 10.3677 33.78C9.59965 33.908 8.95965 33.78 8.44765 33.78H7.80765C7.55165 33.652 7.42365 33.652 7.29565 33.78Z" fill="white"/>
<path id="Vector_28" d="M28.4158 26.484C26.4958 28.404 25.8558 31.476 26.6238 34.036C26.8798 34.932 27.3918 35.828 28.2878 36.212C28.6718 36.34 29.1838 36.34 29.6958 36.468C30.2078 36.596 30.5918 36.852 30.7198 37.236C30.9758 37.876 30.3358 38.516 29.6958 38.644C29.0558 38.772 28.4158 38.516 27.9038 38.132C25.7278 36.724 24.4478 34.292 24.4478 31.732C24.4478 29.172 25.7278 26.74 27.6478 25.076C29.5678 23.412 32.1278 22.516 34.6878 22.516C35.1998 22.516 35.8398 22.516 36.0958 22.9C36.7358 23.54 36.0958 24.18 35.4558 24.18C34.5598 24.18 33.7918 24.052 32.8958 24.18C31.1038 24.436 29.5678 25.332 28.4158 26.484Z" fill="#FAD666"/>
<path id="Vector_29" opacity="0.2" d="M35.7122 23.412C34.3042 22.004 24.4482 24.692 25.0882 32.5C25.4722 37.492 30.4642 39.54 30.3362 37.748C30.0802 37.108 29.0562 37.236 28.2882 36.852C25.6002 35.828 24.3202 29.94 28.0322 26.1C30.7202 23.284 33.7922 23.54 35.4562 23.668C35.7122 23.668 35.8402 23.54 35.7122 23.412Z" fill="white"/>
<path id="Vector_30" d="M33.5358 28.788C31.3598 29.172 28.7998 30.58 28.9278 32.628C29.0558 34.164 31.4878 36.596 30.9758 40.436C30.7198 41.844 29.9518 43.636 28.5438 44.276C28.2878 44.404 27.9038 44.276 27.7758 44.02C27.6478 43.764 27.6478 43.508 27.6478 43.124C27.9038 41.204 29.3118 39.668 28.7998 37.748C28.2878 35.828 25.0878 33.14 28.4158 29.556C30.0798 27.892 33.5358 26.356 34.8158 26.356C35.4558 26.356 37.3758 27.124 36.9918 28.148C36.9918 29.044 34.1758 28.66 33.5358 28.788Z" fill="#FAD666"/>
<path id="Vector_31" opacity="0.2" d="M36.7361 28.02C36.7361 27.636 35.5841 26.996 34.9441 26.996C34.3041 26.996 33.5361 27.252 32.8961 27.508C31.4881 28.148 30.0801 28.788 29.0561 29.94C28.1601 30.964 27.6481 32.244 27.7761 33.268C27.7761 33.396 27.7761 33.652 27.9041 33.78C28.0321 34.292 28.4161 34.932 28.6721 35.444C29.0561 36.084 29.4401 36.724 29.5681 37.492C29.5681 37.748 29.6961 37.876 29.6961 38.132C29.8241 39.284 29.4401 40.308 29.0561 41.204C28.8001 41.844 28.5441 42.484 28.4161 43.124V43.636C29.5681 43.124 30.3361 41.588 30.4641 40.308C30.5921 39.796 30.5921 39.156 30.4641 38.644C30.3361 37.364 29.9521 36.084 29.1841 34.804L29.0561 34.548C28.8001 34.036 28.4161 33.396 28.2881 32.628C28.1601 31.604 28.8001 30.452 29.8241 29.684C30.7201 28.916 32.0001 28.404 33.4081 28.148H34.4321C35.0721 28.276 36.4801 28.276 36.7361 28.02Z" fill="white"/>
<path id="Vector_32" d="M30.3361 37.748C29.1841 38.004 27.9041 38.388 27.0081 39.156C26.2401 39.796 25.6001 40.692 25.7281 41.716C25.7281 42.356 26.1121 42.996 26.4961 43.636C27.5201 45.428 28.0321 47.476 27.7761 49.524C27.5201 50.932 26.7521 52.724 25.3441 53.364C25.0881 53.492 24.7041 53.364 24.5761 53.108C24.4481 52.852 24.4481 52.596 24.4481 52.212C24.7041 50.292 26.1121 48.756 25.6001 46.836C25.3441 45.556 24.1921 44.404 23.9361 43.124C23.5521 41.588 24.1921 39.924 25.3441 38.644C26.4961 37.492 27.9041 36.724 29.4401 36.084C30.2081 35.828 30.9761 35.444 31.7441 35.444C32.3841 35.444 34.3041 36.212 33.9201 37.236C33.7921 38.004 30.9761 37.62 30.3361 37.748Z" fill="#FAD666"/>
<path id="Vector_33" opacity="0.2" d="M33.536 36.9799C33.536 36.5959 32.384 35.9559 31.744 35.9559C31.104 35.9559 30.336 36.2119 29.696 36.4679C28.288 37.1079 26.88 37.7479 25.856 38.8999C24.96 39.9239 24.448 41.2039 24.576 42.2279C24.576 42.3559 24.576 42.6119 24.704 42.7399C24.832 43.2519 25.216 43.8919 25.472 44.4039C25.856 45.0439 26.24 45.6839 26.368 46.4519C26.368 46.7079 26.496 46.8359 26.496 47.0919C26.624 48.2439 26.24 49.2679 25.856 50.1639C25.6 50.8039 25.344 51.4439 25.216 52.0839V52.5959C26.368 52.0839 27.136 50.5479 27.264 49.2679C27.392 48.7559 27.392 48.1159 27.264 47.6039C27.136 46.3239 26.752 45.0439 25.984 43.7639L25.856 43.5079C25.6 42.9959 25.216 42.3559 25.088 41.5879C24.96 40.5639 25.6 39.4119 26.624 38.6439C27.52 37.8759 28.8 37.3639 30.208 37.1079H31.232C31.872 37.2359 33.28 37.2359 33.536 36.9799Z" fill="white"/>
<path id="Vector_34" d="M31.4878 42.3559C29.5678 44.2759 28.9278 47.3479 29.6958 49.9079C29.9518 50.8039 30.4638 51.6999 31.3598 52.0839C31.7438 52.2119 32.2558 52.2119 32.7678 52.3399C33.2798 52.4679 33.6638 52.7239 33.7918 53.1079C34.0478 53.7479 33.4078 54.3879 32.7678 54.5159C32.1278 54.6439 31.4878 54.3879 30.9758 54.0039C28.7998 52.5959 27.5198 50.1639 27.5198 47.6039C27.5198 45.0439 28.7998 42.6119 30.7198 40.9479C32.6398 39.2839 35.1998 38.3879 37.7598 38.3879C38.2718 38.3879 38.9118 38.3879 39.1678 38.7719C39.8078 39.4119 39.1678 40.0519 38.5278 40.0519C37.6318 40.0519 36.8638 39.9239 35.9678 40.0519C34.3038 40.3079 32.7678 41.2039 31.4878 42.3559Z" fill="#FAD666"/>
<path id="Vector_35" opacity="0.2" d="M38.9119 39.4121C38.9119 39.4121 38.9119 39.2841 38.7839 39.2841C38.5279 39.0281 38.1439 39.0281 37.7599 39.0281C35.3279 39.0281 32.8959 39.9241 31.1039 41.4601C29.1839 43.1241 28.1599 45.4281 28.1599 47.7321V48.2441C28.2879 50.4201 29.5679 52.5961 31.3599 53.6201C31.8719 54.0041 32.3839 54.1321 32.7679 54.0041C33.0239 54.0041 33.4079 53.6201 33.4079 53.3641C33.2799 53.1081 33.0239 52.8521 32.7679 52.8521C32.6399 52.8521 32.3839 52.7241 32.2559 52.7241C31.9999 52.7241 31.6159 52.5961 31.3599 52.4681C30.2079 51.9561 29.5679 50.8041 29.3119 49.9081C29.1839 49.3961 29.0559 48.7561 28.9279 48.2441C28.6719 45.9401 29.5679 43.5081 31.1039 41.8441C32.3839 40.5641 34.0479 39.6681 35.8399 39.4121C36.6079 39.2841 37.2479 39.4121 37.7599 39.4121H38.3999C38.7839 39.6681 38.9119 39.5401 38.9119 39.4121Z" fill="white"/>
<path id="Vector_36" d="M51.4562 32.628C54.5282 27.636 56.1922 21.876 56.3202 16.116C55.0402 17.652 54.7842 19.7 54.4002 21.62C53.3762 26.1 51.2002 30.196 48.1282 33.652C45.0562 37.108 41.4722 39.924 37.6322 42.228C36.9922 42.612 36.3522 43.124 36.3522 43.764C36.3522 44.276 36.8642 44.788 37.5042 44.788C38.7842 45.044 39.9362 43.892 40.9602 43.252C42.3682 42.356 43.7762 41.332 45.0562 40.18C47.4882 38.132 49.6642 35.572 51.4562 32.628Z" fill="#8FC902"/>
<path id="Vector_37" opacity="0.2" d="M37.2482 44.02L36.9922 43.764C36.9922 43.508 37.2482 43.252 37.8882 42.868C42.2402 40.308 45.8242 37.364 48.6402 34.164C51.3282 31.092 53.2482 27.636 54.4002 24.052C53.6322 26.868 52.3522 29.684 50.8162 32.244C49.1522 35.06 46.9762 37.62 44.4162 39.668C43.1362 40.82 41.8562 41.716 40.4482 42.612C40.1922 42.74 40.0642 42.868 39.8082 42.996C39.0402 43.508 38.2722 44.148 37.5042 44.02C37.3762 44.148 37.2482 44.148 37.2482 44.02Z" fill="white"/>
<path id="Vector_38" d="M55.4237 31.86C55.6797 26.1 54.3997 20.212 51.7117 15.092C51.3277 17.012 52.0957 18.932 52.6077 20.852C53.8877 25.204 53.8877 29.94 52.8637 34.42C51.8397 38.9 50.0477 43.124 47.7437 46.964C47.3597 47.604 46.9757 48.372 47.3597 48.884C47.6157 49.396 48.3837 49.396 48.8957 49.268C50.1757 48.884 50.6877 47.348 51.1997 46.196C52.0957 44.66 52.7357 43.124 53.3757 41.588C54.5277 38.516 55.1677 35.188 55.4237 31.86Z" fill="#7AAF00"/>
<path id="Vector_39" opacity="0.2" d="M48.3839 48.628C48.2559 48.628 48.1279 48.628 47.9999 48.5C47.8719 48.372 47.9999 47.86 48.3839 47.348C50.9439 42.996 52.7359 38.644 53.6319 34.548C54.5279 30.58 54.5279 26.612 53.8879 22.9C54.5279 25.844 54.7839 28.788 54.6559 31.86C54.5279 35.188 53.7599 38.388 52.6079 41.46C51.9679 42.996 51.3279 44.532 50.5599 45.94C50.4319 46.196 50.3039 46.452 50.1759 46.58C49.7919 47.476 49.2799 48.372 48.6399 48.5C48.5119 48.628 48.3839 48.628 48.3839 48.628Z" fill="white"/>
<path id="Vector_40" d="M52.992 30.708C53.12 24.948 51.712 19.06 48.768 14.068C48.384 15.988 49.28 17.908 49.792 19.828C51.2 24.18 51.328 28.916 50.432 33.268C49.536 37.748 47.872 41.972 45.696 45.94C45.312 46.58 45.056 47.348 45.44 47.86C45.696 48.372 46.464 48.372 46.976 48.244C48.128 47.732 48.64 46.196 49.28 45.172C50.048 43.636 50.688 42.1 51.328 40.436C52.352 37.364 52.864 34.036 52.992 30.708Z" fill="#8FC902"/>
<path id="Vector_41" opacity="0.2" d="M46.4639 47.732C46.3359 47.732 46.0799 47.732 46.0799 47.604C45.9519 47.476 46.0799 46.964 46.4639 46.452C50.6879 38.9 53.1199 30.324 51.1999 21.876C53.2479 29.684 52.2239 38.004 48.6399 45.044L48.2559 45.812C47.8719 46.708 47.4879 47.604 46.7199 47.86C46.7199 47.732 46.5919 47.732 46.4639 47.732Z" fill="white"/>
<path id="Vector_42" d="M48.7678 30.452C48.8958 24.692 47.4878 18.804 44.5438 13.812C44.1598 15.732 45.0558 17.652 45.5678 19.572C46.9758 23.924 47.1038 28.66 46.2078 33.012C45.3118 37.492 43.6478 41.716 41.4718 45.684C41.0878 46.324 40.8318 47.092 41.2158 47.604C41.4718 48.116 42.2398 48.116 42.7518 47.988C43.9038 47.476 44.4158 45.94 45.0558 44.916C45.8238 43.38 46.4638 41.844 47.1038 40.18C48.1278 37.236 48.7678 33.908 48.7678 30.452Z" fill="#8FC902"/>
<path id="Vector_43" opacity="0.2" d="M42.2403 47.476C42.1123 47.476 41.8563 47.476 41.8563 47.348C41.7283 47.22 41.8563 46.708 42.2403 46.196C44.6723 41.716 46.3363 37.364 47.1043 33.268C47.8723 29.3 47.8723 25.332 46.9763 21.62C47.7443 24.564 48.1283 27.508 48.0003 30.452C48.0003 33.78 47.3603 36.98 46.3363 40.18C45.8243 41.716 45.1843 43.252 44.4163 44.788L44.0324 45.556C43.6484 46.452 43.2643 47.348 42.4963 47.604C42.4963 47.476 42.3683 47.476 42.2403 47.476Z" fill="white"/>
<path id="Vector_44" d="M49.5357 28.276C47.7437 22.772 44.5437 17.78 40.1917 13.812C40.4477 15.732 41.8557 17.268 43.1357 18.932C45.8237 22.516 47.4876 26.996 48.1276 31.476C48.7676 35.956 48.5117 40.564 47.7436 45.044C47.6156 45.684 47.4876 46.58 48.1276 46.964C48.5116 47.348 49.2796 47.22 49.6636 46.836C50.6876 45.94 50.5597 44.404 50.8157 43.252C51.0717 41.588 51.1997 39.924 51.1997 38.132C51.0717 34.804 50.5597 31.476 49.5357 28.276Z" fill="#7AAF00"/>
<path id="Vector_45" opacity="0.2" d="M44.9279 20.468C50.0479 28.148 50.8159 35.188 49.9199 44.02C49.7919 44.916 49.6639 45.94 49.1519 46.452C46.2079 48.756 53.2479 34.036 44.9279 20.468Z" fill="white"/>
<path id="Vector_46" d="M36.2241 13.812C36.4801 15.732 37.8881 17.268 39.1681 18.932C44.6721 26.356 45.4401 35.956 43.7761 45.044C43.6481 45.684 43.5201 46.58 44.1601 46.964C44.5441 47.348 45.3121 47.22 45.6961 46.836C47.3601 45.428 50.5601 26.612 36.2241 13.812Z" fill="#7AAF00"/>
<path id="Vector_47" opacity="0.2" d="M44.5437 46.452C43.6477 45.812 48.3837 32.5 40.9597 20.468C49.0237 32.244 46.3357 47.732 44.5437 46.452Z" fill="white"/>
<path id="Vector_48" d="M26.368 27.892C22.912 31.348 17.408 31.348 13.952 27.892C10.496 24.436 10.496 18.932 13.952 15.476C17.408 12.02 26.752 8.18 30.208 11.636C33.664 15.092 29.824 24.564 26.368 27.892Z" fill="#E4F2F4"/>
<path id="Vector_49" d="M23.9127 25.5812C26.0121 23.4817 26.0121 20.0778 23.9126 17.9784C21.8131 15.879 18.4092 15.8791 16.3098 17.9786C14.2103 20.0781 14.2104 23.4819 16.3099 25.5814C18.4094 27.6808 21.8133 27.6807 23.9127 25.5812Z" fill="#FCE95E"/>
<path id="Vector_50" d="M30.2081 52.468C26.7521 55.924 21.2481 55.924 17.7921 52.468C14.3361 49.012 14.3361 43.508 17.7921 40.052C21.2481 36.596 30.5921 32.756 34.0481 36.212C37.5041 39.668 33.6641 49.012 30.2081 52.468Z" fill="#E4F2F4"/>
<path id="Vector_51" d="M27.7396 50.0462C29.839 47.9467 29.839 44.5428 27.7395 42.4434C25.64 40.344 22.2361 40.344 20.1367 42.4435C18.0372 44.543 18.0373 47.9469 20.1368 50.0463C22.2363 52.1458 25.6402 52.1457 27.7396 50.0462Z" fill="#FCE95E"/>
</g>
</svg>
