<svg width="64" height="65" viewBox="0 0 64 65" fill="none" xmlns="http://www.w3.org/2000/svg">
<g id="Frame" clip-path="url(#clip0_3_71504)">
<path id="Vector" fill-rule="evenodd" clip-rule="evenodd" d="M39.8235 23.52C39.8735 23.47 39.9147 23.41 39.9447 23.345C40.8097 21.4025 41.071 19.2663 40.701 17.165C40.3222 15.015 39.3035 13.06 37.7535 11.51C36.2047 9.96125 34.2497 8.9425 32.0985 8.5625C29.9972 8.1925 27.861 8.455 25.9197 9.32C25.7885 9.37875 25.6835 9.48375 25.6247 9.61625C24.7585 11.5575 24.4972 13.6938 24.8672 15.795C25.246 17.945 26.2647 19.9013 27.8147 21.45C29.3635 22.9988 31.3197 24.0188 33.4697 24.3975C35.571 24.7675 37.7072 24.5063 39.6485 23.64C39.7147 23.6113 39.7735 23.57 39.8235 23.52Z" fill="#8EC140"/>
<path id="Vector_2" fill-rule="evenodd" clip-rule="evenodd" d="M37.096 10.905C36.7573 10.6187 36.4048 10.355 36.0373 10.1162C35.9098 10.9587 35.7485 12.0112 35.7135 12.28C35.3985 14.6437 35.0323 17.5012 34.8923 18.5887C33.8023 18.7287 30.9298 19.0975 28.561 19.4125C28.2635 19.4525 27.1448 19.5887 26.3873 19.6837C26.6285 20.0575 26.8948 20.4175 27.1835 20.7612C27.8998 20.6725 28.6823 20.5762 28.9648 20.5387C31.8885 20.15 35.4473 19.6962 35.4885 19.6912C35.621 19.6737 35.7385 19.6137 35.8285 19.5237C35.9173 19.435 35.9773 19.3175 35.9948 19.185C35.9998 19.14 36.5248 15.0325 36.9273 12.0162C36.9435 11.9 37.0148 11.43 37.096 10.905Z" fill="#738E43"/>
<path id="Vector_3" fill-rule="evenodd" clip-rule="evenodd" d="M33.2108 8.82115C32.847 8.71615 32.4758 8.6299 32.0983 8.5624L32.0595 8.55615C31.9883 9.2149 31.917 9.8799 31.8983 10.0224C31.6358 12.0212 31.372 14.0724 31.2583 14.9549C30.3358 15.0737 28.1345 15.3562 26.052 15.6299L24.8658 15.7874L24.867 15.7949C24.9345 16.1799 25.0233 16.5599 25.132 16.9312L26.5833 16.7399C29.1783 16.3987 31.8258 16.0612 31.8545 16.0574C31.987 16.0399 32.1045 15.9799 32.1945 15.8899C32.2833 15.8012 32.3433 15.6837 32.3608 15.5512C32.3645 15.5199 32.7408 12.5762 33.0995 9.85365C33.1083 9.77865 33.157 9.32615 33.2108 8.82115Z" fill="#738E43"/>
<path id="Vector_4" fill-rule="evenodd" clip-rule="evenodd" d="M42.2241 25.9188C42.4516 25.6913 42.4516 25.3213 42.2241 25.0926L26.5716 9.44134C26.3429 9.21259 25.9729 9.21259 25.7454 9.44134C25.5166 9.66884 25.5166 10.0388 25.7454 10.2676L41.3966 25.9188C41.6254 26.1476 41.9954 26.1476 42.2241 25.9188Z" fill="#738E43"/>
<path id="Vector_5" fill-rule="evenodd" clip-rule="evenodd" d="M47.3339 23.52C47.2839 23.47 47.2426 23.41 47.2138 23.345C46.3476 21.4025 46.0864 19.2663 46.4564 17.165C46.8351 15.015 47.8551 13.06 49.4039 11.51C50.9526 9.96125 52.9089 8.9425 55.0589 8.5625C57.1601 8.1925 59.2964 8.455 61.2376 9.32C61.3689 9.37875 61.4751 9.48375 61.5338 9.61625C62.3988 11.5575 62.6614 13.6938 62.2901 15.795C61.9114 17.945 60.8926 19.9013 59.3439 21.45C57.7939 22.9988 55.8389 24.0188 53.6876 24.3975C51.5876 24.7675 49.4501 24.5063 47.5089 23.64C47.4439 23.6113 47.3839 23.57 47.3339 23.52Z" fill="#8EC140"/>
<path id="Vector_6" fill-rule="evenodd" clip-rule="evenodd" d="M50.0625 10.905C50.4 10.6187 50.7538 10.355 51.1213 10.1162C51.2488 10.9587 51.4087 12.0112 51.4437 12.28C51.7587 14.6437 52.1262 17.5012 52.265 18.5887C53.3562 18.7287 56.2287 19.0975 58.5962 19.4125C58.895 19.4525 60.0125 19.5887 60.77 19.6837C60.5288 20.0575 60.2638 20.4175 59.9738 20.7612C59.2575 20.6725 58.4762 20.5762 58.1937 20.5387C55.2687 20.15 51.7113 19.6962 51.6688 19.6912C51.5363 19.6737 51.4188 19.6137 51.33 19.5237C51.24 19.435 51.18 19.3175 51.1637 19.185C51.1575 19.14 50.6325 15.0325 50.23 12.0162C50.2137 11.9 50.1425 11.43 50.0625 10.905Z" fill="#738E43"/>
<path id="Vector_7" fill-rule="evenodd" clip-rule="evenodd" d="M53.9467 8.82115C54.3105 8.71615 54.6817 8.6299 55.0592 8.5624L55.098 8.55615C55.1692 9.2149 55.2417 9.8799 55.2605 10.0224C55.523 12.0212 55.7867 14.0724 55.8992 14.9549C56.823 15.0737 59.0242 15.3562 61.1067 15.6299L62.2917 15.7874L62.2905 15.7949C62.223 16.1799 62.1342 16.5599 62.0255 16.9312L60.5755 16.7399C57.9805 16.3987 55.333 16.0612 55.303 16.0574C55.1705 16.0399 55.053 15.9799 54.963 15.8899C54.8742 15.8012 54.8142 15.6837 54.7967 15.5512C54.793 15.5199 54.4167 12.5762 54.0592 9.85365C54.0492 9.77865 54.0005 9.32615 53.9467 8.82115Z" fill="#738E43"/>
<path id="Vector_8" fill-rule="evenodd" clip-rule="evenodd" d="M44.9349 25.9188C44.7061 25.6913 44.7061 25.3213 44.9349 25.0926L60.5861 9.44134C60.8149 9.21259 61.1849 9.21259 61.4124 9.44134C61.6411 9.66884 61.6411 10.0388 61.4124 10.2676L45.7611 25.9188C45.5324 26.1476 45.1624 26.1476 44.9349 25.9188Z" fill="#738E43"/>
<g id="Group">
<path id="Vector_9" fill-rule="evenodd" clip-rule="evenodd" d="M15.7703 47.0914C20.4241 41.6351 29.7278 40.9014 35.7678 43.7189C39.9391 45.6689 39.9391 45.6689 44.0341 44.0701L61.7641 37.1464C63.0766 36.6339 63.8653 35.7889 63.9853 34.7639C64.0753 33.9889 63.7503 33.2214 63.1553 32.8089C62.5803 32.4114 61.8403 32.4101 61.0703 32.8064C56.4228 35.2001 43.0391 37.8376 37.5916 35.4639H25.3191C24.8828 35.4639 24.5303 35.1101 24.5303 34.6739C24.5303 34.2389 24.8828 33.8851 25.3191 33.8851H37.7503H37.7578H37.7703C39.4503 33.8789 40.2528 32.5489 40.2866 31.3139C40.3116 30.3564 39.8616 29.2114 38.5041 29.1376C37.2241 29.0676 35.4866 28.9139 33.6478 28.7514C29.5416 28.3876 24.4328 27.9364 22.0166 28.2151C17.7453 28.7139 10.4278 34.4614 9.83907 34.9289L9.41407 35.3676C9.34157 35.4426 9.25907 35.5001 9.16907 35.5401L15.7703 47.0914Z" fill="#FFD6AB"/>
<path id="Vector_10" fill-rule="evenodd" clip-rule="evenodd" d="M12.7965 56.6001C12.724 56.6001 12.6515 56.5901 12.5803 56.5689C12.389 56.5114 12.229 56.3814 12.134 56.2051L0.0902971 33.8764C-0.107203 33.5101 0.0302971 33.0539 0.395297 32.8564L7.06155 29.2614C7.23655 29.1664 7.4428 29.1451 7.63405 29.2026C7.8253 29.2601 7.98655 29.3901 8.08155 29.5664L20.124 51.8951C20.3215 52.2614 20.1853 52.7176 19.819 52.9151L13.154 56.5101C13.0428 56.5701 12.9203 56.6001 12.7965 56.6001Z" fill="#6699FF"/>
</g>
</g>
<defs>
<clipPath id="clip0_3_71504">
<rect width="64" height="64" fill="white" transform="translate(0 0.5)"/>
</clipPath>
</defs>
</svg>
