<svg width="31" height="31" viewBox="0 0 31 31" fill="none" xmlns="http://www.w3.org/2000/svg">
<g id="Layer_1">
<path id="color_x5F_2_34_" d="M23.6967 27.4197C18.9617 31.0436 13.3439 28.7007 11.9375 28.0147C12.9287 27.6877 13.8914 27.286 14.8154 26.8171C16.9402 25.6145 18.7688 24.2309 20.5667 22.5952C21.1254 22.0348 21.6615 21.4527 22.208 20.8844C21.6269 21.42 21.0585 21.9668 20.4705 22.4896C18.6053 23.9912 16.7267 25.244 14.5673 26.3024C13.6238 26.7114 12.653 27.0479 11.666 27.3051C12.1172 23.5765 13.3288 20.5726 16.655 18.9216C16.4047 19.9129 16.1006 21.0082 16.2103 22.0397C16.4235 20.75 17.253 19.496 17.9179 18.3968C20.5628 17.4855 23.8153 17.663 25.4983 15.0113C26.0493 14.1431 26.345 13.0395 26.2175 12.0095C27.4089 14.2043 28.5841 17.9277 27.6066 21.6272C27.1439 22.2006 26.615 22.6778 26.0392 23.1325C25.7656 23.3049 25.5002 23.5066 25.202 23.6454C24.6255 23.9744 23.9842 24.1707 23.3288 24.3438C23.9997 24.2968 24.6908 24.2222 25.348 23.9973C25.6866 23.9105 25.9991 23.7567 26.3263 23.6266C26.5624 23.5045 26.801 23.3808 27.0326 23.2446C26.6373 24.1194 26.0982 24.9791 25.3916 25.804C24.2964 26.2621 23.1909 26.6969 22.0639 27.0711C20.9516 27.4404 19.6991 27.886 18.51 27.7784C19.9263 28.1572 21.5994 27.7917 23.0086 27.5503C23.2385 27.5093 23.4675 27.4638 23.6967 27.4197ZM4.17836 25.1851C6.10771 27.8535 9.45116 27.506 10.3039 27.3663C9.83151 27.0361 9.38611 26.6707 8.97176 26.2761C8.03856 25.3026 7.29141 24.2811 6.59976 23.13C6.39316 22.7449 6.20196 22.3519 6.00311 21.9646C6.22546 22.3401 6.43931 22.7196 6.66741 23.0894C7.41601 24.1803 8.21016 25.1402 9.18466 26.0431C9.61881 26.4092 10.0789 26.7413 10.5602 27.0339C10.9133 24.9901 10.7493 23.2089 9.25191 21.8077C9.22671 22.3712 9.21406 22.9994 8.99221 23.5276C9.08461 22.8078 8.84536 22.0202 8.66721 21.3296C7.42021 20.4331 5.69111 20.0162 5.20446 18.3687C5.04096 17.8152 5.05356 17.1669 5.29096 16.6338C4.31241 17.6056 3.09986 19.3886 3.02966 21.5006C3.18346 21.8774 3.38716 22.2134 3.61976 22.5456C3.73711 22.6802 3.84546 22.829 3.98121 22.9498C4.23396 23.2153 4.54196 23.4209 4.86116 23.6165C4.51376 23.4851 4.16001 23.336 3.84816 23.1127C3.68281 23.0131 3.54191 22.8822 3.38946 22.7614C3.28401 22.6593 3.17736 22.556 3.07651 22.4472C3.14676 22.9727 3.29546 23.513 3.53826 24.0615C4.05841 24.4887 4.58806 24.9049 5.14026 25.2902C5.65906 25.6522 6.23366 26.0693 6.86486 26.1981C6.05256 26.1736 5.23341 25.7172 4.52156 25.3634C4.40651 25.3053 4.29261 25.2448 4.17836 25.1851Z" fill="#D63131"/>
<path id="color_x5F_1_37_" d="M21.7389 11.8378C21.6642 11.9511 21.567 12.0478 21.4566 12.1266L16.1481 15.9193C15.9756 16.0417 15.758 16.1989 15.5299 16.2999C15.3851 16.3639 15.2362 16.4052 15.0921 16.4004C14.8714 16.393 14.7139 16.2765 14.5295 16.19C14.5295 16.19 13.7649 15.8868 13.2987 15.9732C12.8853 16.0838 12.2073 16.3531 11.1158 16.9727C11.1158 16.9727 9.95329 17.6357 8.62079 18.4156C9.00309 19.972 9.71034 21.2912 10.7256 22.3035C10.9726 22.5498 11.2406 22.7691 11.5178 22.9761C11.5852 22.8064 11.6568 22.6375 11.7329 22.4697C12.8127 20.0918 14.8687 18.3 17.3564 17.5054C18.5847 17.1131 19.8297 16.7922 21.0817 16.5004C22.0059 16.285 22.9306 15.9433 23.6751 15.3416C24.2833 14.85 24.818 13.8824 24.818 13.8824C24.5091 11.4745 23.5666 8.7864 22.1669 6.4049C20.4011 3.40025 18.3233 1.60645 16.6085 1.60645C14.8787 1.60645 12.7949 3.40045 11.0346 6.40555C9.31494 9.34139 8.28809 12.753 8.28809 15.5313C8.28809 16.1695 8.33689 16.7783 8.42094 17.3632C9.62789 16.6744 10.6118 16.0997 10.6118 16.0997C11.8003 15.4018 12.3738 14.9245 12.6503 14.6242C12.9044 14.3482 12.9265 13.9347 12.9289 13.5768C12.9035 12.9478 13.3454 12.6504 13.3456 12.6502C13.5551 12.5292 13.7681 12.3863 13.9811 12.2617C14.3296 12.0577 18.8543 9.82305 19.7738 9.3691C19.916 9.2989 20.3437 9.1063 20.4627 9.3094C20.5096 9.3894 20.4824 9.49229 20.4021 9.53864L15.5521 12.3387C15.3858 12.4347 15.3147 12.6466 15.4057 12.8158C15.4999 12.9908 15.7192 13.0522 15.89 12.9535C15.89 12.9535 20.6925 10.2791 20.6999 10.275C21.0186 10.0975 21.3868 10.693 21.0499 10.8875L16.1036 13.8371C15.9005 13.9543 16.105 14.2355 16.2259 14.3488C16.3874 14.4999 16.7331 14.2835 16.9447 14.1613C17.2591 13.9798 19.6147 12.6197 20.478 12.1213L21.5152 11.5225C21.6175 11.4635 21.7478 11.4971 21.8103 11.598C21.8109 11.5989 21.8116 11.5997 21.812 11.6006C21.8123 11.6011 21.8133 11.6028 21.813 11.603C21.8397 11.6583 21.7956 11.7517 21.7389 11.8378Z" fill="#111C54"/>
</g>
</svg>
